<svg version="1.2" xmlns="http://www.w3.org/2000/svg" viewBox="0 0 370 280" width="370" height="280">
	<title>free-fortune-cookie-vectors-ai</title>
	<style>
		.s0 { fill: #eab363 } 
		.s1 { fill: #8c5e28 } 
		.s2 { fill: #e2942d } 
		.s3 { fill: #e6e6e6 } 
		.s4 { opacity: .1;fill: #000000 } 
		.s5 { fill: #f4cd9a } 
	</style>
	<g id="Ebene 4">
		<g id="&lt;Group&gt;">
			<g id="&lt;Group&gt;">
				<path id="&lt;Path&gt;" class="s0" d="m195.5 260c-6 4.6 14.2 21.6-35.4 3.7-49.5-17.9-69.7-80.3-79.8-114.7-10.1-34.4 17-81.2 34.9-94.5 17.9-13.3 50.9-18.8 54.6-19.3 3.6-0.4 8.7-2.7 17.4-11.4 8.7-8.7 36.2-17.9 56-13.8 19.7 4.1 68.8 50.9 101.3 117 32.6 66-11.4 113.3-19.2 113.3-7.8 0-52.8-30.3-56.9-34-4.1-3.6-14.2-4.6-21.6-7.3-7.3-2.8-24.3-22.9-24.3-22.9 2.8 50.4-21.1 79.3-27 83.9z"/>
				<path id="&lt;Path&gt;" class="s1" d="m176.2 266.4c-10.6 0-38.1-19.2-67.4-59.6-29.4-40.4-21.1-96.8-21.1-96.8-5.5 85.8 94.5 152.3 94.5 152.3 0 0 4.5 4.1-6 4.1z"/>
				<path id="&lt;Path&gt;" class="s2" d="m246.8 199c-7.3-2.8-24.3-22.9-24.3-22.9 0 0-7.8-82.6 0-118.8 7.8-36.3 11.9-36.7 17.4-24.8 5 10.7 6.6 126.6 23.9 171.3-4.9-1.8-11.7-2.8-17-4.8z"/>
				<path id="&lt;Path&gt;" class="s1" d="m168.4 38c0 0-15.6 12.8-18.8 13.8-3.2 0.9-39.5 19.7-49.5 39.4-10.1 19.7-3.7-10.5 6.8-21.1 10.6-10.5 36.7-29.4 61.5-32.1z"/>
				<path id="&lt;Path&gt;" class="s3" d="m158.5 243.7c-61.8 33.5-135 33.8-135 33.8 8.2-20.7-15.5-55.8-15.5-55.8 68.1 7.2 112.9-17.9 112.9-17.9 1.6 2.1 37.6 39.9 37.6 39.9z"/>
				<path id="&lt;Path&gt;" class="s4" d="m158.5 243.7c-18.9 10.2-38.8 17.3-57.4 22.3-6.8-24.3-22.6-38.1-35.3-45.5 34.5-5.2 55.1-16.7 55.1-16.7 1.6 2.1 37.6 39.9 37.6 39.9z"/>
			</g>
			<path id="&lt;Path&gt;" class="s5" d="m195.1 46.4c-9.7 18.5-35.5 7.3-29.7 7 5.8-0.3 23.2-24.2 34.8-32.2 11.7-8 43-11.2 46.5-6.2 3.6 5-6.4 5.8-18 6.2-11.7 0.3-19.4 59-19.4 59-21.3-11-4.5-52.3-14.2-33.8z"/>
		</g>
	</g>
</svg>