<svg version="1.2" xmlns="http://www.w3.org/2000/svg" viewBox="0 0 500 280" width="500" height="280">
	<title>free-fortune-cookie-vectors-ai</title>
	<style>
		.s0 { fill: #eab363 } 
		.s1 { fill: #ffd399 } 
		.s2 { fill: #8c5e28 } 
		.s3 { fill: #f4cd9a } 
	</style>
	<g id="Ebene 6">
		<g id="&lt;Group&gt;">
			<path id="&lt;Path&gt;" class="s0" d="m302.9 62.9c0 0 41.2 35 79 66.1 37.8 31.1 67.8 33.7 67.9 41.2 0 7.4-10.1 11-47.7 13.2-37.7 2.1-88.6 33.7-125.4 27.2 0 0-26.5-37.9-32.1-63.2-5.7-25.4 58.3-84.5 58.3-84.5z"/>
			<path id="&lt;Path&gt;" class="s1" d="m276.7 210.6c0 0-26.5-37.9-32.1-63.2-5.7-25.4 58.3-84.5 58.3-84.5 0 0 2 1.7 5.5 4.6-3.9 25.1-16.6 106.4-26.6 143.8q-2.6-0.3-5.1-0.7z"/>
			<path id="&lt;Path&gt;" class="s2" d="m271.9 188.1c0 0-17.5-39-14.8-50 2.6-11.1 40.7-57.8 40.7-57.8 0.6 11.9-25.9 107.8-25.9 107.8z"/>
			<path id="&lt;Path&gt;" class="s1" d="m221.7 142.5c0 0 14.5 9.9 13.4 14.2-1.1 4.4-10.1 6.9-10.1 6.9 0 0-9 6.4-12 6.4-3 0-6.2-7.4-6.2-7.4l-3.8-20.1z"/>
			<path id="&lt;Path&gt;" class="s0" d="m206.8 184.7c0 0-0.2 8.7-24.8 13.9-24.6 5.1-90.3 13.1-120.6 19.9-30.3 6.8-22.6-25.7-13.5-34.9 9.1-9.2 41.8-79.2 51.4-95.2 9.6-15.9 25.1-23.3 25.1-23.3 34.1 10.1 82.4 119.6 82.4 119.6z"/>
			<path id="&lt;Path&gt;" class="s1" d="m206.8 184.7c0 0 0 1.4-1.7 3.5-22.9-13.8-74.5-101-82.1-111.1-2.7-3.7-2.9-7.1-1.9-10.1 2.1-1.3 3.3-1.9 3.3-1.9 34.1 10.1 82.4 119.6 82.4 119.6z"/>
			<path id="&lt;Path&gt;" class="s0" d="m213.9 169.9q-0.5 0.1-0.9 0.1c-3 0-6.2-7.4-6.2-7.4l-3.8-20.1h18.7c0 0 9.1 6.2 12.3 10.9l-22.6 3.1z"/>
			<path id="&lt;Path&gt;" class="s0" d="m248.5 190.8c0 0-7.3 14-15.3 12.7-8-1.3-11.5-18-11.5-18 16.5-2.7 26.8 5.3 26.8 5.3z"/>
			<path id="&lt;Path&gt;" class="s1" d="m226.8 198.5c-3.5-5.4-5.1-13-5.1-13 8.7-1.4 15.7 0.2 20.4 2-3.7 3.8-10.5 8.2-15.3 11z"/>
			<path id="&lt;Path&gt;" class="s3" d="m127.2 101.4c2 6.5-6 8.1-19.4 9.8-13.3 1.6-20 12.3-14 0 6-12.4 19.4-28.6 19.4-28.6 0 0 12 12.2 14 18.8z"/>
			<path id="&lt;Path&gt;" class="s3" d="m315.8 82.6c0 0 33.4 32.6 39.4 34.4 6 1.8-6 15.9-16 10.9-10-5.1-30.8-4.4-30.8-4.4z"/>
		</g>
	</g>
</svg>